<svg width="22" height="22" viewBox="0 0 22 22" fill="none" xmlns="http://www.w3.org/2000/svg">
<path d="M10.0852 14.2085C10.0852 14.7148 10.4956 15.1252 11.0019 15.1252C11.508 15.1252 11.9185 14.7148 11.9185 14.2085V11.9168H14.2102C14.7164 11.9168 15.1269 11.5064 15.1269 11.0002C15.1269 10.4939 14.7164 10.0835 14.2102 10.0835H11.9185V7.79183C11.9185 7.28557 11.508 6.87516 11.0019 6.87516C10.4956 6.87516 10.0852 7.28557 10.0852 7.79183V10.0835H7.79348C7.28722 10.0835 6.87681 10.4939 6.87681 11.0002C6.87681 11.5064 7.28722 11.9168 7.79348 11.9168H10.0852V14.2085Z" fill="white"/>
<path fill-rule="evenodd" clip-rule="evenodd" d="M11.0019 20.1668C16.0644 20.1668 20.1685 16.0627 20.1685 11.0002C20.1685 5.93755 16.0644 1.8335 11.0019 1.8335C5.93921 1.8335 1.83514 5.93755 1.83514 11.0002C1.83514 16.0627 5.93921 20.1668 11.0019 20.1668ZM11.0019 18.3335C15.0519 18.3335 18.3352 15.0503 18.3352 11.0002C18.3352 6.95007 15.0519 3.66683 11.0019 3.66683C6.95173 3.66683 3.66848 6.95007 3.66848 11.0002C3.66848 15.0503 6.95173 18.3335 11.0019 18.3335Z" fill="white"/>
</svg>
