<svg width="44" height="44" viewBox="0 0 44 44" fill="none" xmlns="http://www.w3.org/2000/svg">
<path d="M18.8356 27.9957L24.8313 21.9999L18.8356 16.0043C18.7909 15.9596 18.7517 15.9113 18.7182 15.8605C18.5066 15.5401 18.5173 15.1161 18.7503 14.8061C18.7761 14.7719 18.8045 14.7391 18.8356 14.7079C18.9313 14.6122 19.0429 14.5421 19.1619 14.4976C19.3211 14.438 19.4936 14.4242 19.6589 14.4562C19.8322 14.4898 19.9977 14.5737 20.132 14.7079L26.7758 21.3518C26.9478 21.5237 27.0443 21.7568 27.0443 21.9999C27.0443 22.2431 26.9478 22.4762 26.7758 22.6482L20.132 29.292C19.774 29.65 19.1936 29.65 18.8356 29.292C18.7909 29.2473 18.7517 29.1991 18.7182 29.1482C18.4832 28.7924 18.5224 28.3089 18.8356 27.9957Z" fill="#272937"/>
</svg>
