<svg width="20" height="20" viewBox="0 0 20 20" fill="none" xmlns="http://www.w3.org/2000/svg">
<path fill-rule="evenodd" clip-rule="evenodd" d="M9.16669 1.3146L2.25483 5.30517C1.89089 5.51529 1.66669 5.90361 1.66669 6.32386C1.66669 6.9735 2.19333 7.50014 2.84297 7.50014H17.1571C17.8067 7.50014 18.3334 6.9735 18.3334 6.32386C18.3334 5.90362 18.1092 5.51529 17.7452 5.30517L10.8334 1.3146C10.3177 1.01688 9.68235 1.01688 9.16669 1.3146ZM10 2.75798L4.6731 5.83348H15.3269L10 2.75798Z" fill="#4FC62B"/>
<path d="M10 9.16687C10.4603 9.16687 10.8334 9.53995 10.8334 10.0002V14.1669C10.8334 14.627 10.4603 15.0002 10 15.0002C9.53977 15.0002 9.16669 14.627 9.16669 14.1669V10.0002C9.16669 9.53995 9.53977 9.16687 10 9.16687Z" fill="#4FC62B"/>
<path d="M17.5 18.3335C17.9603 18.3335 18.3334 17.9604 18.3334 17.5002C18.3334 17.04 17.9603 16.6669 17.5 16.6669H2.50002C2.03979 16.6669 1.66669 17.04 1.66669 17.5002C1.66669 17.9604 2.03979 18.3335 2.50002 18.3335H17.5Z" fill="#4FC62B"/>
<path d="M14.5834 9.16687C15.0436 9.16687 15.4167 9.53995 15.4167 10.0002V14.1669C15.4167 14.627 15.0436 15.0002 14.5834 15.0002C14.1231 15.0002 13.75 14.627 13.75 14.1669V10.0002C13.75 9.53995 14.1231 9.16687 14.5834 9.16687Z" fill="#4FC62B"/>
<path d="M5.41669 9.16687C5.87693 9.16687 6.25002 9.53995 6.25002 10.0002V14.1669C6.25002 14.627 5.87693 15.0002 5.41669 15.0002C4.95645 15.0002 4.58335 14.627 4.58335 14.1669V10.0002C4.58335 9.53995 4.95645 9.16687 5.41669 9.16687Z" fill="#4FC62B"/>
</svg>
