<svg width="14" height="15" viewBox="0 0 14 15" fill="none" xmlns="http://www.w3.org/2000/svg">
<path d="M5.83333 6.3335C6.15551 6.3335 6.41667 6.59467 6.41667 6.91684V9.83351C6.41667 10.1557 6.15551 10.4168 5.83333 10.4168C5.51117 10.4168 5.25 10.1557 5.25 9.83351V6.91684C5.25 6.59467 5.51117 6.3335 5.83333 6.3335Z" fill="black"/>
<path d="M8.16671 6.3335C8.48888 6.3335 8.75004 6.59467 8.75004 6.91684V9.83351C8.75004 10.1557 8.48888 10.4168 8.16671 10.4168C7.84453 10.4168 7.58337 10.1557 7.58337 9.83351V6.91684C7.58337 6.59467 7.84453 6.3335 8.16671 6.3335Z" fill="black"/>
<path fill-rule="evenodd" clip-rule="evenodd" d="M5.24996 1.0835C4.60563 1.0835 4.08329 1.60583 4.08329 2.25016V3.41683H1.74996C1.4278 3.41683 1.16663 3.678 1.16663 4.00016C1.16663 4.32233 1.4278 4.5835 1.74996 4.5835H2.40192L2.85203 12.2353C2.8883 12.852 3.39896 13.3335 4.01668 13.3335H9.98324C10.6009 13.3335 11.1116 12.852 11.1479 12.2353L11.598 4.5835H12.25C12.5721 4.5835 12.8333 4.32233 12.8333 4.00016C12.8333 3.678 12.5721 3.41683 12.25 3.41683H9.91663V2.25016C9.91663 1.60583 9.39431 1.0835 8.74996 1.0835H5.24996ZM3.57061 4.5835L4.01668 12.1668H9.98324L10.4293 4.5835H3.57061ZM5.24996 2.25016H8.74996V3.41683H5.24996V2.25016Z" fill="black"/>
</svg>
