<svg width="22" height="22" viewBox="0 0 22 22" fill="none" xmlns="http://www.w3.org/2000/svg">
<g clip-path="url(#clip0_640_1413)">
<path d="M14.5906 9.00004L12.0049 11.5857V2C12.0049 1.96548 12.0031 1.93137 11.9997 1.89776C11.9485 1.3935 11.5226 1 11.0049 1C10.4526 1 10.0049 1.44772 10.0049 2V11.5857L7.41908 8.99994C7.02856 8.60945 6.3954 8.60945 6.00487 8.99994C5.61435 9.39054 5.61435 10.0236 6.00487 10.4142L10.2978 14.7071C10.4853 14.8946 10.7397 15 11.0049 15C11.2701 15 11.5244 14.8946 11.712 14.7071L16.0049 10.4142C16.0537 10.3654 16.0964 10.3128 16.133 10.2573C16.3893 9.86924 16.3466 9.34174 16.0049 9.00004C15.6143 8.60949 14.9812 8.60949 14.5906 9.00004Z" fill="#272937"/>
<path d="M2.00488 18.9999C2.00488 18.4476 2.4526 17.9999 3.00488 17.9999H19.0049C19.5572 17.9999 20.0049 18.4476 20.0049 18.9999C20.0049 19.5522 19.5572 19.9999 19.0049 19.9999H3.00488C2.4526 19.9999 2.00488 19.5522 2.00488 18.9999Z" fill="#272937"/>
</g>
<defs>
<clipPath id="clip0_640_1413">
<rect width="22" height="22" fill="white"/>
</clipPath>
</defs>
</svg>
