<svg width="25" height="24" viewBox="0 0 25 24" fill="none" xmlns="http://www.w3.org/2000/svg">
<path d="M8.91707 9.99989L12.5029 13.5857L16.0887 9.99989C16.4792 9.60941 17.1123 9.60941 17.5029 9.99989C17.5517 10.0488 17.5944 10.1014 17.631 10.1568C17.8873 10.545 17.8446 11.0725 17.5029 11.4142L13.21 15.7071C13.0224 15.8946 12.7681 15.9999 12.5029 15.9999C12.2376 15.9999 11.9833 15.8946 11.7958 15.7071L7.50285 11.4142C7.11233 11.0236 7.11233 10.3905 7.50285 9.99989C7.55167 9.95112 7.60428 9.90841 7.65973 9.8718C8.04788 9.61552 8.57536 9.65823 8.91707 9.99989Z" fill="#B3B4B9"/>
</svg>
