<svg width="24" height="24" viewBox="0 0 24 24" fill="none" xmlns="http://www.w3.org/2000/svg">
<path d="M8.41707 9.99989L12.0029 13.5857L15.5887 9.99989C15.9792 9.60941 16.6123 9.60941 17.0029 9.99989C17.0517 10.0488 17.0944 10.1014 17.131 10.1568C17.3873 10.545 17.3446 11.0725 17.0029 11.4142L12.71 15.7071C12.5224 15.8946 12.2681 15.9999 12.0029 15.9999C11.7376 15.9999 11.4833 15.8946 11.2958 15.7071L7.00285 11.4142C6.61233 11.0236 6.61233 10.3905 7.00285 9.99989C7.05167 9.95112 7.10428 9.90841 7.15973 9.8718C7.54788 9.61552 8.07536 9.65823 8.41707 9.99989Z" fill="#272937"/>
</svg>
