<svg width="14" height="15" viewBox="0 0 14 15" fill="none" xmlns="http://www.w3.org/2000/svg">
<path fill-rule="evenodd" clip-rule="evenodd" d="M12.3 5.40844C12.7556 4.95283 12.7556 4.21414 12.3 3.75852L10.7416 2.20011C10.286 1.7445 9.5473 1.7445 9.09172 2.20011L2.09171 9.20013C1.87291 9.41888 1.75 9.71562 1.75 10.0251V12.1668C1.75 12.489 2.01117 12.7501 2.33333 12.7501H4.47508C4.78451 12.7501 5.08125 12.6272 5.30004 12.4085L12.3 5.40844ZM8.06073 4.88101L9.61911 6.43945L4.47508 11.5835H2.91667V10.0251L8.06073 4.88101ZM10.4441 5.61447L8.88568 4.05605L9.91667 3.02506L11.4751 4.58348L10.4441 5.61447Z" fill="#B3B4B9"/>
</svg>
