<svg width="100" height="100" viewBox="0 0 100 100" fill="none" xmlns="http://www.w3.org/2000/svg">
<circle cx="50" cy="50" r="50" fill="#F2F2F3"/>
<path d="M45.8333 50C44.6827 50 43.75 50.9327 43.75 52.0833C43.75 53.234 44.6827 54.1667 45.8333 54.1667H54.1666C55.3173 54.1667 56.25 53.234 56.25 52.0833C56.25 50.9327 55.3173 50 54.1666 50H45.8333Z" fill="#272937"/>
<path fill-rule="evenodd" clip-rule="evenodd" d="M29.1666 41.6667C29.1666 43.2089 30.0045 44.5555 31.25 45.2759V64.5833C31.25 66.8846 33.1154 68.75 35.4166 68.75H64.5833C66.8845 68.75 68.75 66.8846 68.75 64.5833V45.2759C69.9954 44.5555 70.8333 43.2089 70.8333 41.6667V35.4167C70.8333 33.1155 68.9679 31.25 66.6666 31.25H33.3333C31.0321 31.25 29.1666 33.1155 29.1666 35.4167V41.6667ZM33.3333 35.4167V41.6667H66.6666V35.4167H33.3333ZM64.5833 45.8333H35.4166V64.5833H64.5833V45.8333Z" fill="#272937"/>
</svg>
