<svg width="24" height="24" viewBox="0 0 24 24" fill="none" xmlns="http://www.w3.org/2000/svg">
<path d="M3 7.0001C3 6.36497 3.51487 5.8501 4.15 5.8501C4.78513 5.8501 5.3 6.36497 5.3 7.0001C5.3 7.63522 4.78513 8.1501 4.15 8.1501C3.51487 8.1501 3 7.63522 3 7.0001Z" fill="#B3B4B9"/>
<path d="M7.00006 7.00009C7.00006 6.4478 7.44778 6.00009 8.00006 6.00009H20.0001C20.5524 6.00009 21.0001 6.4478 21.0001 7.00009C21.0001 7.55237 20.5524 8.00009 20.0001 8.00009H8.00006C7.44778 8.00009 7.00006 7.55237 7.00006 7.00009Z" fill="#B3B4B9"/>
<path d="M3 12C3 11.3649 3.51487 10.85 4.15 10.85C4.78513 10.85 5.3 11.3649 5.3 12C5.3 12.6352 4.78513 13.15 4.15 13.15C3.51487 13.15 3 12.6352 3 12Z" fill="#B3B4B9"/>
<path d="M8.00006 11C7.44778 11 7.00006 11.4478 7.00006 12C7.00006 12.5523 7.44778 13 8.00006 13H20.0001C20.5524 13 21.0001 12.5523 21.0001 12C21.0001 11.4478 20.5524 11 20.0001 11H8.00006Z" fill="#B3B4B9"/>
<path d="M7.00006 17.0001C7.00006 16.4478 7.44778 16.0001 8.00006 16.0001H20.0001C20.5524 16.0001 21.0001 16.4478 21.0001 17.0001C21.0001 17.5524 20.5524 18.0001 20.0001 18.0001H8.00006C7.44778 18.0001 7.00006 17.5524 7.00006 17.0001Z" fill="#B3B4B9"/>
<path d="M3.00006 17.0001C3.00006 16.3649 3.51494 15.8501 4.15006 15.8501C4.78519 15.8501 5.30006 16.3649 5.30006 17.0001C5.30006 17.6352 4.78519 18.1501 4.15006 18.1501C3.51494 18.1501 3.00006 17.6352 3.00006 17.0001Z" fill="#B3B4B9"/>
</svg>
