<svg width="20" height="20" viewBox="0 0 20 20" fill="none" xmlns="http://www.w3.org/2000/svg">
<path fill-rule="evenodd" clip-rule="evenodd" d="M5.83333 8.75C7.55922 8.75 8.95833 7.35089 8.95833 5.625C8.95833 3.89911 7.55922 2.5 5.83333 2.5C4.10744 2.5 2.70833 3.89911 2.70833 5.625C2.70833 7.35089 4.10744 8.75 5.83333 8.75ZM5.83333 7.08333C6.63875 7.08333 7.29167 6.43042 7.29167 5.625C7.29167 4.81958 6.63875 4.16667 5.83333 4.16667C5.02792 4.16667 4.375 4.81958 4.375 5.625C4.375 6.43042 5.02792 7.08333 5.83333 7.08333Z" fill="#FFB649"/>
<path fill-rule="evenodd" clip-rule="evenodd" d="M17.2917 5.625C17.2917 7.35089 15.8926 8.75 14.1667 8.75C12.4407 8.75 11.0417 7.35089 11.0417 5.625C11.0417 3.89911 12.4407 2.5 14.1667 2.5C15.8926 2.5 17.2917 3.89911 17.2917 5.625ZM15.625 5.625C15.625 6.43042 14.9721 7.08333 14.1667 7.08333C13.3612 7.08333 12.7083 6.43042 12.7083 5.625C12.7083 4.81958 13.3612 4.16667 14.1667 4.16667C14.9721 4.16667 15.625 4.81958 15.625 5.625Z" fill="#FFB649"/>
<path fill-rule="evenodd" clip-rule="evenodd" d="M12.8822 11.8136C13.2943 11.7175 13.7242 11.6667 14.1667 11.6667C15.8182 11.6667 17.302 12.3764 18.3333 13.5128V15H13.3333C13.3333 15.6072 13.171 16.1764 12.8874 16.6667H18.3333C19.2538 16.6667 20 15.9205 20 15V13.4723C20 13.1112 19.8874 12.7557 19.6492 12.4843C18.3128 10.9613 16.352 10 14.1667 10C13.2722 10 12.4152 10.1611 11.6233 10.4558C11.961 10.742 12.277 11.0527 12.5686 11.3849C12.6886 11.5217 12.7927 11.6653 12.8822 11.8136Z" fill="#FFB649"/>
<path fill-rule="evenodd" clip-rule="evenodd" d="M10 16.6667C10.9205 16.6667 11.6667 15.9205 11.6667 15V13.4723C11.6667 13.1112 11.5541 12.7557 11.3159 12.4843C10.9269 12.041 10.485 11.6453 10 11.307C8.81892 10.4832 7.38255 10 5.83333 10C3.64798 10 1.68718 10.9613 0.350757 12.4843C0.11258 12.7557 0 13.1112 0 13.4723V15C0 15.9205 0.746193 16.6667 1.66667 16.6667H10ZM5.83333 11.6667C7.48487 11.6667 8.96867 12.3764 10 13.5128V15H1.66667V13.5128C2.69798 12.3764 4.18181 11.6667 5.83333 11.6667ZM1.66683 13.4681C1.66686 13.4678 1.66682 13.4682 1.66683 13.4681Z" fill="#FFB649"/>
</svg>
