<svg width="25" height="24" viewBox="0 0 25 24" fill="none" xmlns="http://www.w3.org/2000/svg">
<path fill-rule="evenodd" clip-rule="evenodd" d="M11.9375 7.25C11.9375 9.32107 10.2586 11 8.1875 11C6.11643 11 4.4375 9.32107 4.4375 7.25C4.4375 5.17893 6.11643 3.5 8.1875 3.5C10.2586 3.5 11.9375 5.17893 11.9375 7.25ZM9.9375 7.25C9.9375 8.2165 9.154 9 8.1875 9C7.221 9 6.4375 8.2165 6.4375 7.25C6.4375 6.2835 7.221 5.5 8.1875 5.5C9.154 5.5 9.9375 6.2835 9.9375 7.25Z" fill="#B3B4B9"/>
<path fill-rule="evenodd" clip-rule="evenodd" d="M17.6875 20.5C19.7586 20.5 21.4375 18.8211 21.4375 16.75C21.4375 14.6789 19.7586 13 17.6875 13C15.6164 13 13.9375 14.6789 13.9375 16.75C13.9375 18.8211 15.6164 20.5 17.6875 20.5ZM17.6875 18.5C18.654 18.5 19.4375 17.7165 19.4375 16.75C19.4375 15.7835 18.654 15 17.6875 15C16.721 15 15.9375 15.7835 15.9375 16.75C15.9375 17.7165 16.721 18.5 17.6875 18.5Z" fill="#B3B4B9"/>
<path d="M20.7375 4.19999C21.128 4.59052 21.128 5.22368 20.7375 5.61421L6.55169 19.8C6.16117 20.1905 5.528 20.1905 5.13748 19.8C4.74695 19.4095 4.74695 18.7763 5.13748 18.3858L19.3233 4.19999C19.7138 3.80947 20.347 3.80947 20.7375 4.19999Z" fill="#B3B4B9"/>
</svg>
