<svg width="20" height="20" viewBox="0 0 20 20" fill="none" xmlns="http://www.w3.org/2000/svg">
<path fill-rule="evenodd" clip-rule="evenodd" d="M13.3333 5.83333C13.3333 7.67428 11.8409 9.16667 9.99998 9.16667C8.15903 9.16667 6.66665 7.67428 6.66665 5.83333C6.66665 3.99238 8.15903 2.5 9.99998 2.5C11.8409 2.5 13.3333 3.99238 13.3333 5.83333ZM11.6666 5.83333C11.6666 6.75381 10.9205 7.5 9.99998 7.5C9.07948 7.5 8.33331 6.75381 8.33331 5.83333C8.33331 4.91286 9.07948 4.16667 9.99998 4.16667C10.9205 4.16667 11.6666 4.91286 11.6666 5.83333Z" fill="#FFB649"/>
<path fill-rule="evenodd" clip-rule="evenodd" d="M16.6666 14.3055C16.6666 13.9444 16.5535 13.5895 16.3179 13.3158C14.7896 11.5407 12.5261 10.4167 9.99998 10.4167C7.47386 10.4167 5.21027 11.5407 3.68204 13.3158C3.44645 13.5895 3.33331 13.9444 3.33331 14.3055V15.8333C3.33331 16.7538 4.0795 17.5 4.99998 17.5H15C15.9205 17.5 16.6666 16.7538 16.6666 15.8333V14.3055ZM15 14.3402C13.7761 12.9537 11.9906 12.0833 9.99998 12.0833C8.00941 12.0833 6.22391 12.9537 4.99998 14.3402V15.8333H15V14.3402Z" fill="#FFB649"/>
</svg>
