<svg width="20" height="20" viewBox="0 0 20 20" fill="none" xmlns="http://www.w3.org/2000/svg">
<path d="M8.33317 8.33351C8.79342 8.33351 9.1665 8.70661 9.1665 9.16686V13.3335C9.1665 13.7938 8.79342 14.1669 8.33317 14.1669C7.87294 14.1669 7.49984 13.7938 7.49984 13.3335V9.16686C7.49984 8.70661 7.87294 8.33351 8.33317 8.33351Z" fill="white"/>
<path d="M11.6665 8.33351C12.1268 8.33351 12.4998 8.70661 12.4998 9.16686V13.3335C12.4998 13.7938 12.1268 14.1669 11.6665 14.1669C11.2063 14.1669 10.8332 13.7938 10.8332 13.3335V9.16686C10.8332 8.70661 11.2063 8.33351 11.6665 8.33351Z" fill="white"/>
<path fill-rule="evenodd" clip-rule="evenodd" d="M7.49984 0.833496C6.57936 0.833496 5.83317 1.57969 5.83317 2.50017V4.16683H2.49984C2.0396 4.16683 1.6665 4.53992 1.6665 5.00016C1.6665 5.4604 2.0396 5.8335 2.49984 5.8335H3.43121L4.07422 16.7647C4.12605 17.6457 4.85555 18.3335 5.73801 18.3335H14.2617C15.1441 18.3335 15.8737 17.6457 15.9254 16.7647L16.5685 5.8335H17.4998C17.9601 5.8335 18.3332 5.4604 18.3332 5.00016C18.3332 4.53992 17.9601 4.16683 17.4998 4.16683H14.1665V2.50017C14.1665 1.57969 13.4203 0.833496 12.4998 0.833496H7.49984ZM5.10076 5.8335L5.73801 16.6668H14.2617L14.8989 5.8335H5.10076ZM7.49984 2.50017H12.4998V4.16683H7.49984V2.50017Z" fill="white"/>
</svg>
