<svg width="20" height="20" viewBox="0 0 20 20" fill="none" xmlns="http://www.w3.org/2000/svg">
<path d="M15 11.6667C15 12.357 14.4404 12.9167 13.75 12.9167C13.0597 12.9167 12.5 12.357 12.5 11.6667C12.5 10.9763 13.0597 10.4167 13.75 10.4167C14.4404 10.4167 15 10.9763 15 11.6667Z" fill="#4FC62B"/>
<path fill-rule="evenodd" clip-rule="evenodd" d="M4.16669 2.5C2.78598 2.5 1.66669 3.61929 1.66669 5V15.8333C1.66669 16.7538 2.41288 17.5 3.33335 17.5H16.6667C17.5872 17.5 18.3334 16.7538 18.3334 15.8333V7.5C18.3334 6.57952 17.5872 5.83333 16.6667 5.83333V4.16667C16.6667 3.24619 15.9205 2.5 15 2.5H4.16669ZM3.33335 5C3.33335 5.46024 3.70645 5.83333 4.16669 5.83333H15V4.16667H4.16669C3.70645 4.16667 3.33335 4.53977 3.33335 5ZM3.33335 7.35775C3.594 7.44987 3.8745 7.5 4.16669 7.5H16.6667V15.8333H3.33335V7.35775Z" fill="#4FC62B"/>
</svg>
